#!OML:ASF I:\Actors\actors\Patient Classification 1\Patient 1\Session 1\Subject1.ASF
:FULLY-SPECIFIED
:DEGREES
372
root -0.316383 17.5074 7.79362 6.80625 -2.49728 -7.92669
lowerback 0.75943 2.69356 6.40919
upperback -9.43215 4.09911 0.590703
thorax -10.0859 1.49905 -3.31053
lowerneck -12.7736 -5.64906 -3.12751
upperneck 25.6345 -10.0292 9.65188
head 11.0732 -3.78141 2.65723
rclavicle -2.17669e-014 -5.56597e-015
rhumerus 49.1817 32.7473 -12.2686
rradius 105.082
rwrist 3.92173
rhand 8.54181 -33.1585
rfingers 7.12502
rthumb 33.742 -59.9991
lclavicle -2.17669e-014 -5.56597e-015
lhumerus -27.1021 -36.2833 98.8719
lradius 100.824
lwrist 31.5821
lhand -14.9215 -6.06611
lfingers 7.12502
lthumb 11.2405 23.6127
rfemur 1.4036 24.8245 26.7901
rtibia 1.14518
rfoot -12.1248 -21.6559
rtoes 0.429068
lfemur 10.6666 -40.6432 -17.7201
ltibia -4.8469
lfoot -17.0012 48.0093
ltoes 5.59134
373
root -0.315143 17.5069 7.79604 6.8204 -2.63417 -7.90403
lowerback 0.727182 2.71621 6.45544
upperback -9.44533 4.12976 0.586946
thorax -10.0759 1.51002 -3.34094
lowerneck -12.7554 -5.62526 -3.18062
upperneck 25.7104 -9.98168 9.61848
head 11.0948 -3.76698 2.6625
rclavicle -9.14409e-015 -3.97569e-016
rhumerus 49.0595 32.8803 -12.3805
rradius 104.486
rwrist 9.4507
rhand 6.41984 -29.7973
rfingers 7.12502
rthumb 31.7233 -57.0583
lclavicle -9.14409e-015 -3.97569e-016
lhumerus -27.1744 -36.2925 98.7999
lradius 100.88
lwrist 31.5833
lhand -14.9599 -6.06917
lfingers 7.12502
lthumb 11.2035 23.6117
rfemur 1.42105 24.9292 26.7616
rtibia 1.10589
rfoot -12.086 -21.6534
rtoes 0.523169
lfemur 10.7458 -40.6578 -17.8164
ltibia -4.87618
lfoot -17.1902 48.1082
ltoes 5.92161
374
root -0.314345 17.5067 7.79781 6.81104 -2.82455 -7.93649
lowerback 0.348337 2.8685 6.8353
upperback -9.1366 4.29004 0.378704
thorax -9.44712 1.57989 -3.75061
lowerneck -13.141 -5.70192 -3.07972
upperneck 25.6065 -10.1347 9.72842
head 11.1479 -3.80359 2.65179
rclavicle 1.2921e-015 -9.54166e-015
rhumerus 48.752 32.4332 -12.6971
rradius 104.015
rwrist 13.8996
rhand 3.94915 -27.3661
rfingers 7.12502
rthumb 29.3672 -55.0661
lclavicle 1.2921e-015 -9.54166e-015
lhumerus -26.5331 -36.7572 98.2115
lradius 100.881
lwrist 31.691
lhand -14.953 -6.02299
lfingers 7.12502
lthumb 11.21 23.6575
rfemur 1.46231 25.0134 26.8033
rtibia 1.07015
rfoot -12.0104 -21.5743
rtoes 0.551652
lfemur 10.8932 -40.7073 -17.9229
ltibia -4.86539
lfoot -17.5185 48.2716
ltoes 6.38585
375
root -0.313343 17.5068 7.79726 6.81763 -2.99387 -7.93943
lowerback 0.180632 2.94478 7.03258
upperback -8.98253 4.37185 0.279555
thorax -9.14663 1.61627 -3.95399
lowerneck -13.3662 -5.72163 -3.01085
upperneck 25.5765 -10.1826 9.75013
head 11.1838 -3.80909 2.63479
rclavicle -2.10712e-014 2.38542e-015
rhumerus 48.7843 32.266 -12.7344
rradius 103.577
rwrist 17.188
rhand 1.58675 -25.7148
rfingers 7.12502
rthumb 27.1093 -53.7882
lclavicle -2.10712e-014 2.38542e-015
lhumerus -26.2018 -36.9174 97.8555
lradius 100.883
lwrist 31.744
lhand -14.891 -6.0276
lfingers 7.12502
lthumb 11.2699 23.6497
rfemur 1.44024 25.0562 26.7858
rtibia 1.08276
rfoot -11.9956 -21.4552
rtoes 0.599145
lfemur 10.9192 -40.6456 -17.9732
ltibia -4.80668
lfoot -17.7073 48.3289
ltoes 6.51984
376
root -0.311184 17.5074 7.79577 6.84665 -3.12962 -7.88846
lowerback 0.211995 2.96623 7.06036
upperback -8.99031 4.40321 0.254346
thorax -9.16685 1.62709 -4.00039
lowerneck -13.4171 -5.70864 -2.92345
upperneck 25.6135 -10.1611 9.64829
head 11.195 -3.7998 2.58521
rclavicle -9.34288e-015 2.06736e-014
rhumerus 48.9634 32.3407 -12.6395
rradius 103.192
rwrist 19.5627
rhand -0.200533 -24.502
rfingers 7.12502
rthumb 25.3983 -52.8302
lclavicle -9.34288e-015 2.06736e-014
lhumerus -26.2384 -36.8773 97.7635
lradius 100.932
lwrist 31.7427
lhand -14.8663 -6.05774
lfingers 7.12502
lthumb 11.2937 23.6182
rfemur 1.36478 25.0602 26.6813
rtibia 1.1139
rfoot -11.9665 -21.3387
rtoes 0.515254
lfemur 10.8178 -40.3775 -17.9503
ltibia -4.78953
lfoot -17.5703 48.1975
ltoes 6.30825
377
root -0.309116 17.5078 7.79526 6.86702 -3.25273 -7.88272
lowerback 0.234336 2.97995 7.11605
upperback -8.99304 4.42711 0.262005
thorax -9.17807 1.63407 -4.02603
lowerneck -13.4319 -5.6822 -2.79487
upperneck 25.6399 -10.1158 9.50129
head 11.1879 -3.78277 2.51651
rclavicle 6.75868e-015 6.36111e-015
rhumerus 49.118 32.3603 -12.7046
rradius 102.878
rwrist 21.6518
rhand -1.33898 -23.3884
rfingers 7.12502
rthumb 24.3073 -51.8672
lclavicle 6.75868e-015 6.36111e-015
lhumerus -26.2947 -36.7966 97.725
lradius 100.988
lwrist 31.6931
lhand -14.9406 -6.05613
lfingers 7.12502
lthumb 11.222 23.6237
rfemur 1.32392 25.0658 26.6404
rtibia 1.1169
rfoot -11.9157 -21.2332
rtoes 0.435002
lfemur 10.7544 -40.1238 -17.8948
ltibia -4.79763
lfoot -17.4217 48.0797
ltoes 6.14727
378
root -0.308261 17.5083 7.79504 6.90179 -3.3753 -7.86971
lowerback 0.22102 2.9759 7.11103
upperback -9.00495 4.42371 0.304694
thorax -9.18761 1.63395 -3.97717
lowerneck -13.4198 -5.66656 -2.8171
upperneck 25.6594 -10.0702 9.43111
head 11.1856 -3.77251 2.50187
rclavicle -2.54444e-014 -9.54166e-015
rhumerus 49.2955 32.4145 -12.8863
rradius 102.582
rwrist 23.856
rhand -2.64942 -22.4677
rfingers 7.12502
rthumb 23.0504 -51.1092
lclavicle -2.54444e-014 -9.54166e-015
lhumerus -26.3523 -36.6489 97.7552
lradius 101.012
lwrist 31.6703
lhand -15.1279 -6.07708
lfingers 7.12502
lthumb 11.0414 23.6125
rfemur 1.26658 25.0785 26.5845
rtibia 1.11709
rfoot -11.8729 -21.1342
rtoes 0.338836
lfemur 10.739 -40.1276 -17.9357
ltibia -4.75384
lfoot -17.5443 48.181
ltoes 6.34194
379
root -0.307782 17.5095 7.79435 6.94715 -3.46964 -7.83837
lowerback 0.19512 2.95555 7.07543
upperback -9.0181 4.39518 0.340731
thorax -9.19507 1.62367 -3.91617
lowerneck -13.4073 -5.65683 -2.89951
upperneck 25.6511 -10.0325 9.42138
head 11.1804 -3.76563 2.51788
rclavicle 3.80673e-014 -7.55382e-015
rhumerus 49.4684 32.522 -13.1307
rradius 102.329
rwrist 25.7309
rhand -4.40475 -22.2255
rfingers 7.12502
rthumb 21.3652 -51.0676
lclavicle 3.80673e-014 -7.55382e-015
lhumerus -26.4039 -36.5021 97.7919
lradius 101.04
lwrist 31.6966
lhand -15.3448 -6.16614
lfingers 7.12502
lthumb 10.8322 23.5345
rfemur 1.17218 25.0458 26.4963
rtibia 1.14535
rfoot -11.8183 -21.0296
rtoes 0.134831
lfemur 10.7065 -40.238 -18.0078
ltibia -4.67673
lfoot -17.7575 48.3437
ltoes 6.56021
380
root -0.307509 17.5103 7.79334 6.97301 -3.52951 -7.88458
lowerback 0.205698 2.95291 7.15578
upperback -9.01734 4.3971 0.346645
thorax -9.19666 1.61838 -3.95502
lowerneck -13.4343 -5.65291 -2.88167
upperneck 25.672 -10.0378 9.43337
head 11.1941 -3.76335 2.51805
rclavicle 1.81888e-014 3.18055e-014
rhumerus 49.4563 32.6105 -13.5019
rradius 102.241
rwrist 26.4726
rhand -6.1388 -22.8829
rfingers 7.12502
rthumb 19.6989 -51.9048
lclavicle 1.81888e-014 3.18055e-014
lhumerus -26.4243 -36.4516 97.7851
lradius 101.08
lwrist 31.689
lhand -15.4944 -6.28285
lfingers 7.12502
lthumb 10.6879 23.4253
rfemur 1.1017 25.0257 26.5215
rtibia 1.1992
rfoot -11.8022 -20.9581
rtoes 0.0667785
lfemur 10.6761 -40.2105 -17.9369
ltibia -4.66818
lfoot -17.8252 48.3713
ltoes 6.58136
381
root -0.307968 17.5102 7.79333 7.00264 -3.57193 -7.94217
lowerback 0.186381 2.986 7.28514
upperback -9.00102 4.44177 0.294879
thorax -9.15073 1.63024 -4.0824
lowerneck -13.5226 -5.69783 -2.83585
upperneck 25.7183 -10.1476 9.52577
head 11.2422 -3.79294 2.52623
rclavicle -7.65321e-015 -1.59028e-015
rhumerus 49.1421 32.7241 -14.1412
rradius 102.34
rwrist 25.804
rhand -7.82416 -24.461
rfingers 7.12502
rthumb 18.078 -53.6409
lclavicle -7.65321e-015 -1.59028e-015
lhumerus -26.381 -36.5452 97.7237
lradius 101.104
lwrist 31.6638
lhand -15.5899 -6.36666
lfingers 7.12502
lthumb 10.5958 23.3462
rfemur 1.04959 25.0761 26.5786
rtibia 1.25647
rfoot -11.866 -20.9451
rtoes 0.157502
lfemur 10.6673 -40.1377 -17.8323
ltibia -4.73616
lfoot -17.8097 48.3588
ltoes 6.5862
382
root -0.309677 17.5103 7.79447 7.03223 -3.59292 -7.94372
lowerback 0.102894 3.00198 7.29876
upperback -8.95179 4.44956 0.244837
thorax -9.04019 1.63701 -4.13625
lowerneck -13.6387 -5.7412 -2.78071
upperneck 25.6928 -10.2521 9.62863
head 11.2685 -3.81958 2.53566
rclavicle -1.51076e-014 2.38542e-014
rhumerus 48.6651 32.909 -15.023
rradius 102.516
rwrist 23.8311
rhand -9.20213 -26.5211
rfingers 7.12502
rthumb 16.7519 -55.8184
lclavicle -1.51076e-014 2.38542e-014
lhumerus -26.2988 -36.6071 97.6587
lradius 101.123
lwrist 31.6245
lhand -15.6402 -6.42288
lfingers 7.12502
lthumb 10.5472 23.2925
rfemur 1.01819 25.1074 26.5761
rtibia 1.27513
rfoot -11.9386 -20.9324
rtoes 0.303167
lfemur 10.6816 -40.1726 -17.8302
ltibia -4.78567
lfoot -17.7964 48.4244
ltoes 6.61922
383
root -0.312017 17.5111 7.7948 7.02995 -3.5958 -7.91626
lowerback 0.237896 2.92535 7.1253
upperback -9.03572 4.35916 0.308298
thorax -9.23952 1.59784 -3.97936
lowerneck -13.5435 -5.70568 -2.74673
upperneck 25.7056 -10.2017 9.59371
head 11.246 -3.80088 2.5273
rclavicle 5.96354e-016 -6.36111e-015
rhumerus 48.1242 33.4221 -16.0892
rradius 102.822
rwrist 20.5617
rhand -9.66141 -28.4677
rfingers 7.12502
rthumb 16.3097 -57.8018
lclavicle 5.96354e-016 -6.36111e-015
lhumerus -26.5942 -36.3168 97.8512
lradius 101.19
lwrist 31.4996
lhand -15.662 -6.52773
lfingers 7.12502
lthumb 10.5262 23.1887
rfemur 1.02058 25.0726 26.5465
rtibia 1.26373
rfoot -11.9409 -20.8993
rtoes 0.371645
lfemur 10.7173 -40.2531 -17.8908
ltibia -4.79245
lfoot -17.9043 48.506
ltoes 6.76851
384
root -0.314091 17.5114 7.79485 7.02369 -3.52786 -7.88892
lowerback 0.276042 2.83586 6.99916
upperback -9.05574 4.24006 0.355662
thorax -9.3087 1.54786 -3.85479
lowerneck -13.5073 -5.67992 -2.75455
upperneck 25.7119 -10.166 9.6004
head 11.2392 -3.7861 2.53736
rclavicle 4.27387e-015 5.1684e-015
rhumerus 47.275 33.8574 -17.6007
rradius 103.354
rwrist 16.3513
rhand -9.43089 -30.5298
rfingers 7.12502
rthumb 16.5316 -59.8456
lclavicle 4.27387e-015 5.1684e-015
lhumerus -26.7121 -36.0478 97.8971
lradius 101.276
lwrist 31.45
lhand -15.7144 -6.57191
lfingers 7.12502
lthumb 10.4757 23.1471
rfemur 1.03052 25.0089 26.5181
rtibia 1.25361
rfoot -11.9521 -20.9019
rtoes 0.571607
lfemur 10.6939 -40.2779 -17.8966
ltibia -4.7792
lfoot -18.0212 48.4611
ltoes 6.93678
